<svg width="16" height="20" viewBox="0 0 16 20" fill="none" xmlns="http://www.w3.org/2000/svg">
<path fill-rule="evenodd" clip-rule="evenodd" d="M2.45404 2.8338C3.89904 1.38522 5.85886 0.571411 7.90239 0.571411C9.94592 0.571411 11.9057 1.38522 13.3507 2.8338C14.7957 4.28238 15.6075 6.24708 15.6075 8.29568C15.6075 10.1225 15.2203 11.3178 14.1628 12.6406L7.90239 19.8821L1.64198 12.6406C0.584448 11.3178 0.197266 10.1225 0.197266 8.29568C0.197266 6.24708 1.00905 4.28238 2.45404 2.8338ZM10.7921 8.29572C10.7921 9.89547 9.49842 11.1923 7.90264 11.1923C6.30686 11.1923 5.01322 9.89547 5.01322 8.29572C5.01322 6.69597 6.30686 5.39912 7.90264 5.39912C9.49842 5.39912 10.7921 6.69597 10.7921 8.29572Z" fill="#B1B1B1"/>
</svg>
