<svg width="325" height="40" viewBox="0 0 325 40" fill="none" xmlns="http://www.w3.org/2000/svg">
<path d="M29.0945 38.9553V0.657013H35.9629V32.7463H49.6723V38.9553H29.0945Z" fill="black"/>
<path d="M64.343 22.086C69.0135 21.6464 70.662 21.042 70.662 18.899C70.662 17.1957 69.1234 15.8769 66.0464 15.8769C63.0792 15.8769 60.6066 17.0858 58.6285 19.5035L54.5624 16.0418C57.2548 12.2504 61.0462 10.3822 65.9365 10.3822C72.8049 10.3822 77.0908 13.679 77.0908 19.3386V31.5919C77.0908 33.515 77.0908 33.7348 77.0908 33.7348V38.8449V39.4494H71.9807V36.3174C70.0576 38.5702 66.9256 39.7241 62.5847 39.7241C56.4856 39.7241 52.3645 36.3723 52.3645 31.3171C52.3645 25.6576 56.1559 22.8003 64.343 22.086ZM63.5738 34.1195C67.9695 34.1195 70.662 32.1414 70.662 28.6247V25.5477C70.3872 25.8774 69.8927 26.1521 69.2883 26.3719C68.0245 26.8115 67.2003 26.9214 64.5628 27.1961C60.7165 27.6357 58.7933 28.8445 58.7933 30.7677C58.7933 32.9106 60.5517 34.1195 63.5738 34.1195Z" fill="black"/>
<path d="M81.5693 38.9553V0.657013H88.163V15.273C89.0971 12.5806 92.4489 10.6574 97.0095 10.6574C100.911 10.6574 104.208 12.0311 106.845 14.8334C109.538 17.5808 110.856 20.9875 110.856 25.1086C110.856 29.2296 109.538 32.6364 106.845 35.4387C104.208 38.1861 100.911 39.5597 97.0095 39.5597C92.4489 39.5597 89.0971 37.6366 88.163 34.9442V38.9553H81.5693ZM101.955 31.1528C103.548 29.5593 104.318 27.5263 104.318 25.1086C104.318 22.6909 103.548 20.6579 101.955 19.0644C100.416 17.4709 98.4931 16.6467 96.1304 16.6467C93.7677 16.6467 91.7346 17.4709 90.0862 19.0644C88.4927 20.6579 87.6685 22.6909 87.6685 25.1086C87.6685 27.5263 88.4927 29.5593 90.0862 31.1528C91.7346 32.7463 93.7677 33.5705 96.1304 33.5705C98.4931 33.5705 100.416 32.7463 101.955 31.1528Z" fill="black"/>
<path d="M113.823 25.1087C113.823 20.9876 115.307 17.471 118.219 14.6687C121.131 11.8663 124.703 10.4377 128.934 10.4377C133.165 10.4377 136.737 11.8663 139.649 14.6687C142.561 17.471 144.045 20.9876 144.045 25.1087C144.045 29.2297 142.561 32.7463 139.649 35.5487C136.737 38.351 133.165 39.7796 128.934 39.7796C124.703 39.7796 121.131 38.351 118.219 35.5487C115.307 32.7463 113.823 29.2297 113.823 25.1087ZM135.033 31.3177C136.682 29.6143 137.506 27.5813 137.506 25.1087C137.506 22.636 136.682 20.603 135.033 18.9546C133.385 17.2512 131.352 16.427 128.934 16.427C126.461 16.427 124.428 17.2512 122.78 18.9546C121.186 20.603 120.362 22.636 120.362 25.1087C120.362 27.5813 121.186 29.6143 122.78 31.3177C124.428 32.9661 126.461 33.7903 128.934 33.7903C131.352 33.7903 133.385 32.9661 135.033 31.3177Z" fill="black"/>
<path d="M147.012 38.9556V11.2621H153.551V15.3831C154.869 12.4709 157.891 10.7126 161.793 10.7126C162.562 10.7126 163.221 10.7676 163.771 10.8775V17.2514C162.947 17.0865 162.012 16.9766 161.023 16.9766C156.463 16.9766 153.551 19.8339 153.551 24.3945V38.9556H147.012Z" fill="black"/>
<path d="M192.879 17.2511V11.2618V0.657013H199.472V11.2618H205.572V17.2511H199.472V29.6143C199.472 32.6364 200.516 33.7353 202.934 33.7353C203.758 33.7353 204.528 33.6804 205.242 33.5155V39.3949C204.308 39.6147 203.154 39.7246 201.835 39.7246C195.846 39.7246 192.879 36.5926 192.879 30.3286V17.2511Z" fill="black"/>
<path d="M208.401 25.1087C208.401 20.9876 209.885 17.471 212.797 14.6687C215.709 11.8663 219.281 10.4377 223.512 10.4377C227.743 10.4377 231.315 11.8663 234.227 14.6687C237.139 17.471 238.623 20.9876 238.623 25.1087C238.623 29.2297 237.139 32.7463 234.227 35.5487C231.315 38.351 227.743 39.7796 223.512 39.7796C219.281 39.7796 215.709 38.351 212.797 35.5487C209.885 32.7463 208.401 29.2297 208.401 25.1087ZM229.611 31.3177C231.26 29.6143 232.084 27.5813 232.084 25.1087C232.084 22.636 231.26 20.603 229.611 18.9546C227.963 17.2512 225.93 16.427 223.512 16.427C221.039 16.427 219.006 17.2512 217.358 18.9546C215.764 20.603 214.94 22.636 214.94 25.1087C214.94 27.5813 215.764 29.6143 217.358 31.3177C219.006 32.9661 221.039 33.7903 223.512 33.7903C225.93 33.7903 227.963 32.9661 229.611 31.3177Z" fill="black"/>
<path d="M241.452 38.9556V11.2621H247.991V15.3831C249.309 12.4709 252.332 10.7126 256.233 10.7126C257.002 10.7126 257.661 10.7676 258.211 10.8775V17.2514C257.387 17.0865 256.466 16.9766 255.464 16.9766C250.903 16.9766 247.991 19.8339 247.991 24.3945V38.9556H241.452Z" fill="black"/>
<path d="M261.068 4.11858C261.068 1.92068 262.827 0.217316 265.025 0.217316C267.168 0.217316 268.926 1.92068 268.926 4.11858C268.926 6.31647 267.168 8.01984 265.025 8.01984C262.827 8.01984 261.068 6.31647 261.068 4.11858ZM261.728 38.9552V11.2617H268.321V38.9552H261.728Z" fill="black"/>
<path d="M176.065 22.086C180.736 21.6464 182.384 21.042 182.384 18.899C182.384 17.1957 180.846 15.8769 177.769 15.8769C174.801 15.8769 172.329 17.0858 170.351 19.5035L166.285 16.0418C168.977 12.2504 172.768 10.3822 177.659 10.3822C184.527 10.3822 188.813 13.679 188.813 19.3386V31.5919C188.813 33.515 188.813 33.7348 188.813 33.7348V38.8449V39.4494H183.703V36.3174C181.78 38.5702 178.648 39.7241 174.307 39.7241C168.208 39.7241 164.087 36.3723 164.087 31.3171C164.087 25.6576 167.878 22.8003 176.065 22.086ZM175.296 34.1195C179.692 34.1195 182.384 32.1414 182.384 28.6247V25.5477C182.109 25.8774 181.615 26.1521 181.01 26.3719C179.747 26.8115 178.922 26.9214 176.285 27.1961C172.439 27.6357 170.516 28.8445 170.516 30.7677C170.516 32.9106 172.26 34.1195 175.296 34.1195Z" fill="black"/>
<path d="M283.157 22.086C287.828 21.6464 289.476 21.042 289.476 18.899C289.476 17.1957 287.938 15.8769 284.861 15.8769C281.894 15.8769 279.421 17.0858 277.443 19.5035L273.377 16.0418C276.069 12.2504 279.861 10.3822 284.751 10.3822C291.619 10.3822 295.905 13.679 295.905 19.3386V31.5919C295.905 33.515 295.905 33.7348 295.905 33.7348V38.8449V39.4494H290.795V36.3174C288.872 38.5702 285.74 39.7241 281.399 39.7241C275.3 39.7241 271.179 36.3723 271.179 31.3171C271.179 25.6576 274.97 22.8003 283.157 22.086ZM282.388 34.1195C286.784 34.1195 289.476 32.1414 289.476 28.6247V25.5477C289.202 25.8774 288.707 26.1521 288.103 26.3719C286.839 26.8115 286.015 26.9214 283.377 27.1961C279.531 27.6357 277.608 28.8445 277.608 30.7677C277.608 32.9106 279.366 34.1195 282.388 34.1195Z" fill="black"/>
<path d="M7.29426 25.0394L18.2288 14.1049L14.5885 10.4509L0 25.0394L14.5885 39.6279L18.2288 35.9739L7.29426 25.0394Z" fill="black"/>
<path d="M317.706 25.0394L306.771 14.1049L310.411 10.4509L325 25.0394L310.411 39.6279L306.771 35.9739L317.706 25.0394Z" fill="black"/>
</svg>
